<?xml version="1.0" encoding="UTF-8"?><svg xmlns="http://www.w3.org/2000/svg" xmlns:xlink="http://www.w3.org/1999/xlink" fill-opacity="1" color-rendering="auto" color-interpolation="auto" text-rendering="auto" stroke="black" stroke-linecap="square" width="240" stroke-miterlimit="10" shape-rendering="auto" stroke-opacity="1" fill="black" stroke-dasharray="none" font-weight="normal" stroke-width="1" height="360" font-family="'Dialog'" font-style="normal" stroke-linejoin="miter" font-size="12px" stroke-dashoffset="0" image-rendering="auto">
  <!--Generated by ySVG 2.6-->
  <defs id="genericDefs"/>
  <g>
    <defs id="defs1">
      <clipPath clipPathUnits="userSpaceOnUse" id="clipPath1">
        <path d="M0 0 L240 0 L240 360 L0 360 L0 0 Z"/>
      </clipPath>
      <clipPath clipPathUnits="userSpaceOnUse" id="clipPath2">
        <path d="M-15 15 L225 15 L225 375 L-15 375 L-15 15 Z"/>
      </clipPath>
    </defs>
    <g fill="white" text-rendering="geometricPrecision" shape-rendering="geometricPrecision" transform="translate(15,-15)" stroke="white">
      <rect x="-15" width="240" height="360" y="15" clip-path="url(#clipPath2)" stroke="none"/>
    </g>
    <g fill="rgb(159,100,140)" text-rendering="geometricPrecision" shape-rendering="geometricPrecision" transform="matrix(1,0,0,1,15,-15)" stroke="rgb(159,100,140)">
      <rect x="0" width="30" height="30" y="30" clip-path="url(#clipPath2)" stroke="none"/>
    </g>
    <g text-rendering="geometricPrecision" stroke-miterlimit="1.45" shape-rendering="geometricPrecision" transform="matrix(1,0,0,1,15,-15)" stroke-linecap="butt">
      <rect fill="none" x="0" width="30" height="30" y="30" clip-path="url(#clipPath2)"/>
    </g>
    <g fill="rgb(205,164,182)" text-rendering="geometricPrecision" shape-rendering="geometricPrecision" transform="matrix(1,0,0,1,15,-15)" stroke="rgb(205,164,182)">
      <rect x="60" width="30" height="30" y="30" clip-path="url(#clipPath2)" stroke="none"/>
    </g>
    <g text-rendering="geometricPrecision" stroke-miterlimit="1.45" shape-rendering="geometricPrecision" transform="matrix(1,0,0,1,15,-15)" stroke-linecap="butt">
      <rect fill="none" x="60" width="30" height="30" y="30" clip-path="url(#clipPath2)"/>
    </g>
    <g fill="rgb(216,180,204)" text-rendering="geometricPrecision" shape-rendering="geometricPrecision" transform="matrix(1,0,0,1,15,-15)" stroke="rgb(216,180,204)">
      <rect x="120" width="30" height="30" y="30" clip-path="url(#clipPath2)" stroke="none"/>
    </g>
    <g text-rendering="geometricPrecision" stroke-miterlimit="1.45" shape-rendering="geometricPrecision" transform="matrix(1,0,0,1,15,-15)" stroke-linecap="butt">
      <rect fill="none" x="120" width="30" height="30" y="30" clip-path="url(#clipPath2)"/>
    </g>
    <g fill="rgb(224,196,216)" text-rendering="geometricPrecision" shape-rendering="geometricPrecision" transform="matrix(1,0,0,1,15,-15)" stroke="rgb(224,196,216)">
      <rect x="180" width="30" height="30" y="30" clip-path="url(#clipPath2)" stroke="none"/>
    </g>
    <g text-rendering="geometricPrecision" stroke-miterlimit="1.45" shape-rendering="geometricPrecision" transform="matrix(1,0,0,1,15,-15)" stroke-linecap="butt">
      <rect fill="none" x="180" width="30" height="30" y="30" clip-path="url(#clipPath2)"/>
    </g>
    <g fill="rgb(204,41,54)" text-rendering="geometricPrecision" shape-rendering="geometricPrecision" transform="matrix(1,0,0,1,15,-15)" stroke="rgb(204,41,54)">
      <rect x="0" width="30" height="30" y="90" clip-path="url(#clipPath2)" stroke="none"/>
    </g>
    <g text-rendering="geometricPrecision" stroke-miterlimit="1.45" shape-rendering="geometricPrecision" transform="matrix(1,0,0,1,15,-15)" stroke-linecap="butt">
      <rect fill="none" x="0" width="30" height="30" y="90" clip-path="url(#clipPath2)"/>
    </g>
    <g fill="rgb(230,82,106)" text-rendering="geometricPrecision" shape-rendering="geometricPrecision" transform="matrix(1,0,0,1,15,-15)" stroke="rgb(230,82,106)">
      <rect x="60" width="30" height="30" y="90" clip-path="url(#clipPath2)" stroke="none"/>
    </g>
    <g text-rendering="geometricPrecision" stroke-miterlimit="1.45" shape-rendering="geometricPrecision" transform="matrix(1,0,0,1,15,-15)" stroke-linecap="butt">
      <rect fill="none" x="60" width="30" height="30" y="90" clip-path="url(#clipPath2)"/>
    </g>
    <g fill="rgb(233,153,168)" text-rendering="geometricPrecision" shape-rendering="geometricPrecision" transform="matrix(1,0,0,1,15,-15)" stroke="rgb(233,153,168)">
      <rect x="120" width="30" height="30" y="90" clip-path="url(#clipPath2)" stroke="none"/>
    </g>
    <g text-rendering="geometricPrecision" stroke-miterlimit="1.45" shape-rendering="geometricPrecision" transform="matrix(1,0,0,1,15,-15)" stroke-linecap="butt">
      <rect fill="none" x="120" width="30" height="30" y="90" clip-path="url(#clipPath2)"/>
    </g>
    <g fill="rgb(245,199,205)" text-rendering="geometricPrecision" shape-rendering="geometricPrecision" transform="matrix(1,0,0,1,15,-15)" stroke="rgb(245,199,205)">
      <rect x="180" width="30" height="30" y="90" clip-path="url(#clipPath2)" stroke="none"/>
    </g>
    <g text-rendering="geometricPrecision" stroke-miterlimit="1.45" shape-rendering="geometricPrecision" transform="matrix(1,0,0,1,15,-15)" stroke-linecap="butt">
      <rect fill="none" x="180" width="30" height="30" y="90" clip-path="url(#clipPath2)"/>
    </g>
    <g fill="rgb(235,130,88)" text-rendering="geometricPrecision" shape-rendering="geometricPrecision" transform="matrix(1,0,0,1,15,-15)" stroke="rgb(235,130,88)">
      <rect x="0" width="30" height="30" y="150" clip-path="url(#clipPath2)" stroke="none"/>
    </g>
    <g text-rendering="geometricPrecision" stroke-miterlimit="1.45" shape-rendering="geometricPrecision" transform="matrix(1,0,0,1,15,-15)" stroke-linecap="butt">
      <rect fill="none" x="0" width="30" height="30" y="150" clip-path="url(#clipPath2)"/>
    </g>
    <g fill="rgb(253,170,125)" text-rendering="geometricPrecision" shape-rendering="geometricPrecision" transform="matrix(1,0,0,1,15,-15)" stroke="rgb(253,170,125)">
      <rect x="60" width="30" height="30" y="150" clip-path="url(#clipPath2)" stroke="none"/>
    </g>
    <g text-rendering="geometricPrecision" stroke-miterlimit="1.45" shape-rendering="geometricPrecision" transform="matrix(1,0,0,1,15,-15)" stroke-linecap="butt">
      <rect fill="none" x="60" width="30" height="30" y="150" clip-path="url(#clipPath2)"/>
    </g>
    <g fill="rgb(247,201,192)" text-rendering="geometricPrecision" shape-rendering="geometricPrecision" transform="matrix(1,0,0,1,15,-15)" stroke="rgb(247,201,192)">
      <rect x="120" width="30" height="30" y="150" clip-path="url(#clipPath2)" stroke="none"/>
    </g>
    <g text-rendering="geometricPrecision" stroke-miterlimit="1.45" shape-rendering="geometricPrecision" transform="matrix(1,0,0,1,15,-15)" stroke-linecap="butt">
      <rect fill="none" x="120" width="30" height="30" y="150" clip-path="url(#clipPath2)"/>
    </g>
    <g fill="rgb(251,233,226)" text-rendering="geometricPrecision" shape-rendering="geometricPrecision" transform="matrix(1,0,0,1,15,-15)" stroke="rgb(251,233,226)">
      <rect x="180" width="30" height="30" y="150" clip-path="url(#clipPath2)" stroke="none"/>
    </g>
    <g text-rendering="geometricPrecision" stroke-miterlimit="1.45" shape-rendering="geometricPrecision" transform="matrix(1,0,0,1,15,-15)" stroke-linecap="butt">
      <rect fill="none" x="180" width="30" height="30" y="150" clip-path="url(#clipPath2)"/>
    </g>
    <g fill="rgb(207,176,74)" text-rendering="geometricPrecision" shape-rendering="geometricPrecision" transform="matrix(1,0,0,1,15,-15)" stroke="rgb(207,176,74)">
      <rect x="0" width="30" height="30" y="210" clip-path="url(#clipPath2)" stroke="none"/>
    </g>
    <g text-rendering="geometricPrecision" stroke-miterlimit="1.45" shape-rendering="geometricPrecision" transform="matrix(1,0,0,1,15,-15)" stroke-linecap="butt">
      <rect fill="none" x="0" width="30" height="30" y="210" clip-path="url(#clipPath2)"/>
    </g>
    <g fill="rgb(232,217,114)" text-rendering="geometricPrecision" shape-rendering="geometricPrecision" transform="matrix(1,0,0,1,15,-15)" stroke="rgb(232,217,114)">
      <rect x="60" width="30" height="30" y="210" clip-path="url(#clipPath2)" stroke="none"/>
    </g>
    <g text-rendering="geometricPrecision" stroke-miterlimit="1.45" shape-rendering="geometricPrecision" transform="matrix(1,0,0,1,15,-15)" stroke-linecap="butt">
      <rect fill="none" x="60" width="30" height="30" y="210" clip-path="url(#clipPath2)"/>
    </g>
    <g fill="rgb(241,226,213)" text-rendering="geometricPrecision" shape-rendering="geometricPrecision" transform="matrix(1,0,0,1,15,-15)" stroke="rgb(241,226,213)">
      <rect x="120" width="30" height="30" y="210" clip-path="url(#clipPath2)" stroke="none"/>
    </g>
    <g text-rendering="geometricPrecision" stroke-miterlimit="1.45" shape-rendering="geometricPrecision" transform="matrix(1,0,0,1,15,-15)" stroke-linecap="butt">
      <rect fill="none" x="120" width="30" height="30" y="210" clip-path="url(#clipPath2)"/>
    </g>
    <g fill="rgb(244,237,214)" text-rendering="geometricPrecision" shape-rendering="geometricPrecision" transform="matrix(1,0,0,1,15,-15)" stroke="rgb(244,237,214)">
      <rect x="180" width="30" height="30" y="210" clip-path="url(#clipPath2)" stroke="none"/>
    </g>
    <g text-rendering="geometricPrecision" stroke-miterlimit="1.45" shape-rendering="geometricPrecision" transform="matrix(1,0,0,1,15,-15)" stroke-linecap="butt">
      <rect fill="none" x="180" width="30" height="30" y="210" clip-path="url(#clipPath2)"/>
    </g>
    <g fill="rgb(143,179,73)" text-rendering="geometricPrecision" shape-rendering="geometricPrecision" transform="matrix(1,0,0,1,15,-15)" stroke="rgb(143,179,73)">
      <rect x="0" width="30" height="30" y="270" clip-path="url(#clipPath2)" stroke="none"/>
    </g>
    <g text-rendering="geometricPrecision" stroke-miterlimit="1.45" shape-rendering="geometricPrecision" transform="matrix(1,0,0,1,15,-15)" stroke-linecap="butt">
      <rect fill="none" x="0" width="30" height="30" y="270" clip-path="url(#clipPath2)"/>
    </g>
    <g fill="rgb(183,204,117)" text-rendering="geometricPrecision" shape-rendering="geometricPrecision" transform="matrix(1,0,0,1,15,-15)" stroke="rgb(183,204,117)">
      <rect x="60" width="30" height="30" y="270" clip-path="url(#clipPath2)" stroke="none"/>
    </g>
    <g text-rendering="geometricPrecision" stroke-miterlimit="1.45" shape-rendering="geometricPrecision" transform="matrix(1,0,0,1,15,-15)" stroke-linecap="butt">
      <rect fill="none" x="60" width="30" height="30" y="270" clip-path="url(#clipPath2)"/>
    </g>
    <g fill="rgb(220,227,208)" text-rendering="geometricPrecision" shape-rendering="geometricPrecision" transform="matrix(1,0,0,1,15,-15)" stroke="rgb(220,227,208)">
      <rect x="120" width="30" height="30" y="270" clip-path="url(#clipPath2)" stroke="none"/>
    </g>
    <g text-rendering="geometricPrecision" stroke-miterlimit="1.45" shape-rendering="geometricPrecision" transform="matrix(1,0,0,1,15,-15)" stroke-linecap="butt">
      <rect fill="none" x="120" width="30" height="30" y="270" clip-path="url(#clipPath2)"/>
    </g>
    <g fill="rgb(232,230,213)" text-rendering="geometricPrecision" shape-rendering="geometricPrecision" transform="matrix(1,0,0,1,15,-15)" stroke="rgb(232,230,213)">
      <rect x="180" width="30" height="30" y="270" clip-path="url(#clipPath2)" stroke="none"/>
    </g>
    <g text-rendering="geometricPrecision" stroke-miterlimit="1.45" shape-rendering="geometricPrecision" transform="matrix(1,0,0,1,15,-15)" stroke-linecap="butt">
      <rect fill="none" x="180" width="30" height="30" y="270" clip-path="url(#clipPath2)"/>
    </g>
    <g fill="rgb(38,116,135)" text-rendering="geometricPrecision" shape-rendering="geometricPrecision" transform="matrix(1,0,0,1,15,-15)" stroke="rgb(38,116,135)">
      <rect x="0" width="30" height="30" y="330" clip-path="url(#clipPath2)" stroke="none"/>
    </g>
    <g text-rendering="geometricPrecision" stroke-miterlimit="1.45" shape-rendering="geometricPrecision" transform="matrix(1,0,0,1,15,-15)" stroke-linecap="butt">
      <rect fill="none" x="0" width="30" height="30" y="330" clip-path="url(#clipPath2)"/>
    </g>
    <g fill="rgb(100,139,191)" text-rendering="geometricPrecision" shape-rendering="geometricPrecision" transform="matrix(1,0,0,1,15,-15)" stroke="rgb(100,139,191)">
      <rect x="60" width="30" height="30" y="330" clip-path="url(#clipPath2)" stroke="none"/>
    </g>
    <g text-rendering="geometricPrecision" stroke-miterlimit="1.45" shape-rendering="geometricPrecision" transform="matrix(1,0,0,1,15,-15)" stroke-linecap="butt">
      <rect fill="none" x="60" width="30" height="30" y="330" clip-path="url(#clipPath2)"/>
    </g>
    <g fill="rgb(167,197,217)" text-rendering="geometricPrecision" shape-rendering="geometricPrecision" transform="matrix(1,0,0,1,15,-15)" stroke="rgb(167,197,217)">
      <rect x="120" width="30" height="30" y="330" clip-path="url(#clipPath2)" stroke="none"/>
    </g>
    <g text-rendering="geometricPrecision" stroke-miterlimit="1.45" shape-rendering="geometricPrecision" transform="matrix(1,0,0,1,15,-15)" stroke-linecap="butt">
      <rect fill="none" x="120" width="30" height="30" y="330" clip-path="url(#clipPath2)"/>
    </g>
    <g fill="rgb(192,210,227)" text-rendering="geometricPrecision" shape-rendering="geometricPrecision" transform="matrix(1,0,0,1,15,-15)" stroke="rgb(192,210,227)">
      <rect x="180" width="30" height="30" y="330" clip-path="url(#clipPath2)" stroke="none"/>
    </g>
    <g text-rendering="geometricPrecision" stroke-miterlimit="1.45" shape-rendering="geometricPrecision" transform="matrix(1,0,0,1,15,-15)" stroke-linecap="butt">
      <rect fill="none" x="180" width="30" height="30" y="330" clip-path="url(#clipPath2)"/>
    </g>
  </g>
</svg>
